<?xml version="1.0" encoding="utf-8"?>
<!-- Generator: Adobe Illustrator 27.5.0, SVG Export Plug-In . SVG Version: 6.00 Build 0)  -->
<svg version="1.1" id="Layer_1" xmlns="http://www.w3.org/2000/svg" xmlns:xlink="http://www.w3.org/1999/xlink" x="0px" y="0px"
	 viewBox="0 0 2807 1604" style="enable-background:new 0 0 2807 1604;" xml:space="preserve">
<g>
	<g>
		<defs>
			<rect id="SVGID_1_" width="2806.243" height="1603.568"/>
		</defs>
		<use xlink:href="#SVGID_1_"  style="overflow:visible;fill:#FFFFFF;"/>
		<clipPath id="SVGID_00000137819970927667285540000011021032849493166992_">
			<use xlink:href="#SVGID_1_"  style="overflow:visible;"/>
		</clipPath>
		<g style="clip-path:url(#SVGID_00000137819970927667285540000011021032849493166992_);">
			<g>
				<path style="fill:#B3B3B3;" d="M3018.925,1813.772H-212.682V-210.203h3231.606V1813.772z M-208.505,1809.596h3223.254V-206.027
					H-208.505V1809.596z"/>
			</g>
			<g>
				<rect x="-210.594" y="1708.606" style="fill:#B3B3B3;" width="3227.43" height="4.176"/>
			</g>
			<g>
				<rect x="-210.594" y="1607.614" style="fill:#B3B3B3;" width="3227.43" height="4.176"/>
			</g>
			<g>
				<rect x="-210.594" y="1506.624" style="fill:#B3B3B3;" width="3227.43" height="4.176"/>
			</g>
			<g>
				<rect x="-210.594" y="1405.634" style="fill:#B3B3B3;" width="3227.43" height="4.176"/>
			</g>
			<g>
				<rect x="-210.594" y="1304.645" style="fill:#B3B3B3;" width="3227.43" height="4.176"/>
			</g>
			<g>
				<rect x="-210.594" y="1203.655" style="fill:#B3B3B3;" width="3227.43" height="4.176"/>
			</g>
			<g>
				<rect x="-210.594" y="1102.665" style="fill:#B3B3B3;" width="3227.43" height="4.176"/>
			</g>
			<g>
				<rect x="-210.594" y="1001.676" style="fill:#B3B3B3;" width="3227.43" height="4.176"/>
			</g>
			<g>
				<rect x="-210.594" y="900.686" style="fill:#B3B3B3;" width="3227.43" height="4.176"/>
			</g>
			<g>
				<rect x="-210.594" y="799.696" style="fill:#B3B3B3;" width="3227.43" height="4.176"/>
			</g>
			<g>
				<rect x="-210.594" y="698.707" style="fill:#B3B3B3;" width="3227.43" height="4.176"/>
			</g>
			<g>
				<rect x="-210.594" y="597.715" style="fill:#B3B3B3;" width="3227.43" height="4.176"/>
			</g>
			<g>
				<rect x="-210.594" y="496.725" style="fill:#B3B3B3;" width="3227.43" height="4.176"/>
			</g>
			<g>
				<rect x="-210.594" y="395.735" style="fill:#B3B3B3;" width="3227.43" height="4.176"/>
			</g>
			<g>
				<rect x="-210.594" y="294.746" style="fill:#B3B3B3;" width="3227.43" height="4.176"/>
			</g>
			<g>
				<rect x="-210.594" y="193.756" style="fill:#B3B3B3;" width="3227.43" height="4.176"/>
			</g>
			<g>
				<rect x="-210.594" y="92.766" style="fill:#B3B3B3;" width="3227.43" height="4.176"/>
			</g>
			<g>
				<rect x="-210.594" y="-8.223" style="fill:#B3B3B3;" width="3227.43" height="4.176"/>
			</g>
			<g>
				<rect x="-210.594" y="-109.213" style="fill:#B3B3B3;" width="3227.43" height="4.176"/>
			</g>
			<g>
				<rect x="2916.948" y="-208.115" style="fill:#B3B3B3;" width="4.176" height="2019.798"/>
			</g>
			<g>
				<rect x="2819.147" y="-208.115" style="fill:#B3B3B3;" width="4.176" height="2019.798"/>
			</g>
			<g>
				<rect x="2721.344" y="-208.115" style="fill:#B3B3B3;" width="4.176" height="2019.798"/>
			</g>
			<g>
				<rect x="2623.544" y="-208.115" style="fill:#B3B3B3;" width="4.176" height="2019.798"/>
			</g>
			<g>
				<rect x="2525.743" y="-208.115" style="fill:#B3B3B3;" width="4.176" height="2019.798"/>
			</g>
			<g>
				<rect x="2427.942" y="-208.115" style="fill:#B3B3B3;" width="4.176" height="2019.798"/>
			</g>
			<g>
				<rect x="2330.142" y="-208.115" style="fill:#B3B3B3;" width="4.176" height="2019.798"/>
			</g>
			<g>
				<rect x="2232.341" y="-208.115" style="fill:#B3B3B3;" width="4.176" height="2019.798"/>
			</g>
			<g>
				<rect x="2134.541" y="-208.115" style="fill:#B3B3B3;" width="4.176" height="2019.798"/>
			</g>
			<g>
				<rect x="2036.74" y="-208.115" style="fill:#B3B3B3;" width="4.176" height="2019.798"/>
			</g>
			<g>
				<rect x="1938.94" y="-208.115" style="fill:#B3B3B3;" width="4.176" height="2019.798"/>
			</g>
			<g>
				<rect x="1841.136" y="-208.115" style="fill:#B3B3B3;" width="4.176" height="2019.798"/>
			</g>
			<g>
				<rect x="1743.336" y="-208.115" style="fill:#B3B3B3;" width="4.176" height="2019.798"/>
			</g>
			<g>
				<rect x="1645.535" y="-208.115" style="fill:#B3B3B3;" width="4.176" height="2019.798"/>
			</g>
			<g>
				<rect x="1547.734" y="-208.115" style="fill:#B3B3B3;" width="4.176" height="2019.798"/>
			</g>
			<g>
				<rect x="1449.934" y="-208.115" style="fill:#B3B3B3;" width="4.176" height="2019.798"/>
			</g>
			<g>
				<rect x="1352.133" y="-208.115" style="fill:#B3B3B3;" width="4.176" height="2019.798"/>
			</g>
			<g>
				<rect x="1254.333" y="-208.115" style="fill:#B3B3B3;" width="4.176" height="2019.798"/>
			</g>
			<g>
				<rect x="1156.532" y="-208.115" style="fill:#B3B3B3;" width="4.176" height="2019.798"/>
			</g>
			<g>
				<rect x="1058.731" y="-208.115" style="fill:#B3B3B3;" width="4.176" height="2019.798"/>
			</g>
			<g>
				<rect x="960.928" y="-208.115" style="fill:#B3B3B3;" width="4.176" height="2019.798"/>
			</g>
			<g>
				<rect x="863.127" y="-208.115" style="fill:#B3B3B3;" width="4.176" height="2019.798"/>
			</g>
			<g>
				<rect x="765.327" y="-208.115" style="fill:#B3B3B3;" width="4.176" height="2019.798"/>
			</g>
			<g>
				<rect x="667.527" y="-208.115" style="fill:#B3B3B3;" width="4.176" height="2019.798"/>
			</g>
			<g>
				<rect x="569.726" y="-208.115" style="fill:#B3B3B3;" width="4.176" height="2019.798"/>
			</g>
			<g>
				<rect x="471.925" y="-208.115" style="fill:#B3B3B3;" width="4.176" height="2019.798"/>
			</g>
			<g>
				<rect x="374.124" y="-208.115" style="fill:#B3B3B3;" width="4.176" height="2019.798"/>
			</g>
			<g>
				<rect x="276.324" y="-208.115" style="fill:#B3B3B3;" width="4.176" height="2019.798"/>
			</g>
			<g>
				<rect x="178.524" y="-208.115" style="fill:#B3B3B3;" width="4.176" height="2019.798"/>
			</g>
			<g>
				<rect x="80.72" y="-208.115" style="fill:#B3B3B3;" width="4.176" height="2019.798"/>
			</g>
			<g>
				<rect x="-17.08" y="-208.115" style="fill:#B3B3B3;" width="4.176" height="2019.798"/>
			</g>
			<g>
				<rect x="-114.881" y="-208.115" style="fill:#B3B3B3;" width="4.176" height="2019.798"/>
			</g>
		</g>
	</g>
</g>
</svg>
